<?xml version="1.0" encoding="UTF-8"?> <!-- Generator: Adobe Illustrator 23.0.0, SVG Export Plug-In . SVG Version: 6.00 Build 0) --> <svg xmlns="http://www.w3.org/2000/svg" xmlns:xlink="http://www.w3.org/1999/xlink" version="1.1" id="Layer_1" x="0px" y="0px" viewBox="0 0 90 90" style="enable-background:new 0 0 90 90;" xml:space="preserve"> <style type="text/css"> .st0{fill:#FFFFFF;} </style> <g> <path class="st0" d="M34.02,2.91c1.19,0.28,2.44,0.42,3.53,1.03c1.11,0.54,2.14,1.25,3,2.13c1.76,1.76,2.63,4.27,2.68,6.72 c0.08,2.48-0.83,4.96-2.46,6.83c-0.81,0.94-1.81,1.72-2.91,2.3c-1.09,0.59-2.34,0.93-3.5,1.16l-0.06-0.36 c1.9,0.04,3.79-0.18,5.71,0.29c1.86,0.47,3.67,1.38,5.01,2.81c1.36,1.42,2.1,3.35,2.48,5.19l1.36,5.52l2.65,11.05l1.31,5.53 l0.33,1.39c0.11,0.49,0.17,1,0.17,1.51c0,1.02-0.29,2.04-0.75,2.92l-0.09-0.53l1.27,1.18l-0.61,0.02l0.52-0.55 c0.19-0.2,0.45-0.4,0.74-0.52c0.58-0.27,1.33-0.18,1.83,0.18l2.44,1.74l2.44,1.74c0.41,0.28,0.82,0.6,1.19,0.84 c0.39,0.25,0.82,0.45,1.27,0.63c3.68,1.46,7.5,2.56,11.44,2.94c1.97,0.2,3.95,0.29,5.91,0.16c0.98-0.07,1.96-0.19,2.92-0.38 l1.47-0.33c0.56-0.09,1.2,0.08,1.63,0.49c0.42,0.41,0.67,0.98,0.63,1.58c-0.03,0.6-0.42,1.13-0.79,1.45l-2.12,2.1l-4.24,4.21 l-8.48,8.41l-1.06,1.05c-0.33,0.33-0.73,0.78-1.29,0.89c-0.55,0.12-1.05,0.03-1.55-0.02c-0.5-0.07-1-0.18-1.48-0.32 c-1.96-0.59-3.61-1.85-5.04-3.24c-1.44-1.4-2.63-3.05-3.64-4.77c-1.01-1.72-1.9-3.54-2.44-5.49c-0.14-0.48-0.25-0.98-0.34-1.47 c-0.09-0.33-0.53-0.74-0.81-1.12l-1.87-2.33l-1.88-2.34c-0.31-0.43-0.51-1.04-0.35-1.6c0.14-0.56,0.55-0.97,0.86-1.33l0.02,0.34 l-0.96-0.85l-0.48-0.43c0-0.07-0.14-0.02-0.39,0.03c-0.87,0.22-1.81,0.18-2.67-0.08c-0.86-0.26-1.66-0.74-2.28-1.4 c-0.32-0.32-0.58-0.69-0.8-1.09c-0.11-0.2-0.21-0.4-0.28-0.62c-0.1-0.23-0.12-0.39-0.22-0.47l0.47-0.19l0.08,18.32l0.02,4.59 c0.01,1.6-0.6,3.28-1.83,4.4c-0.6,0.56-1.3,0.99-2.04,1.3c-0.74,0.32-1.56,0.51-2.38,0.52c-1.68,0.03-3.25-0.81-4.4-1.87l0.61-0.02 c-0.82,0.81-1.87,1.46-3.03,1.72c-1.15,0.26-2.37,0.2-3.49-0.18c-1.12-0.38-2.12-1.1-2.86-2.02c-0.73-0.94-1.19-2.07-1.33-3.24 c-0.05-0.6-0.05-1.15-0.05-1.69l0-1.64l-0.01-3.28l-0.02-6.57l-0.01-26.26l0.82,0.42c-0.42,0.29-0.8,0.61-1.31,0.87 c-0.49,0.25-1.03,0.41-1.57,0.5c-1.09,0.18-2.22,0-3.21-0.47c-0.5-0.24-0.95-0.56-1.35-0.94c-0.41-0.38-0.71-0.86-0.97-1.27 l-1.61-2.54c-2.14-3.39-4.17-6.8-6.23-10.21c-1.15-1.77-1.38-4.26-0.23-6.14c1.15-1.85,3.43-2.91,5.57-2.47 c1.06,0.2,2.03,0.76,2.78,1.51c0.76,0.76,1.26,1.64,1.78,2.51c0.98,1.74,2.01,3.43,3.02,5.16l-0.52-0.02 c0.7-0.96,1.37-1.98,2.27-2.82c0.87-0.85,1.9-1.56,3.02-2.06c1.12-0.5,2.33-0.77,3.55-0.84c1.22-0.06,2.39-0.02,3.59-0.03 l-0.02,0.41c-2.49-0.31-4.82-1.58-6.46-3.45c-1.65-1.87-2.55-4.36-2.5-6.84c0.02-2.49,1.07-4.91,2.74-6.72 c0.84-0.91,1.84-1.67,2.96-2.19c1.11-0.55,2.35-0.79,3.54-0.98l0.01,0l0,0L34.02,2.91z M34.01,3.01l-1.63,0.01l0.01,0 c-1.22,0.21-2.41,0.45-3.51,1c-1.1,0.52-2.08,1.28-2.9,2.18c-1.64,1.8-2.65,4.18-2.65,6.62c-0.03,2.43,0.88,4.86,2.52,6.64 c1.63,1.79,3.9,2.98,6.3,3.23l-0.02,0.41c-1.19,0.03-2.41,0.02-3.57,0.09c-1.16,0.09-2.31,0.37-3.37,0.85 c-1.06,0.48-2.01,1.16-2.83,1.99c-0.84,0.8-1.48,1.81-2.17,2.77l-0.27,0.38l-0.24-0.41c-1.03-1.7-2.09-3.4-3.09-5.12 c-0.51-0.83-1.03-1.69-1.7-2.33c-0.67-0.65-1.5-1.11-2.41-1.27c-1.8-0.36-3.75,0.6-4.68,2.15c-0.93,1.57-0.74,3.66,0.29,5.2 c2.12,3.37,4.14,6.82,6.27,10.16l1.59,2.51c0.27,0.44,0.51,0.81,0.84,1.11c0.32,0.3,0.69,0.56,1.09,0.75 c0.8,0.38,1.73,0.52,2.61,0.37c0.44-0.07,0.87-0.2,1.26-0.41c0.38-0.19,0.78-0.51,1.17-0.79l0.82-0.58l0,1l-0.01,26.26l-0.01,6.56 l-0.01,3.28l0,1.64c-0.01,0.55,0,1.1,0.04,1.59c0.12,1,0.51,1.97,1.12,2.76c0.63,0.78,1.47,1.4,2.42,1.73 c0.95,0.32,1.99,0.38,2.98,0.16c0.98-0.21,1.87-0.75,2.61-1.47l0.31-0.3l0.31,0.28c1.07,0.99,2.39,1.69,3.81,1.69 c1.39,0,2.83-0.62,3.88-1.56c2.3-1.96,1.45-5.41,1.64-8.39l0.1-18.32l0-0.65l0.47,0.46c0.22,0.22,0.27,0.51,0.34,0.67 c0.07,0.19,0.15,0.37,0.25,0.55c0.2,0.35,0.42,0.69,0.71,0.98c0.55,0.59,1.27,1.03,2.04,1.27c0.78,0.24,1.61,0.28,2.4,0.08 c0.11-0.02,0.17-0.04,0.34-0.07c0.07-0.01,0.14-0.01,0.25,0.01c0.05,0.01,0.12,0.04,0.18,0.09l0.06,0.05l0.48,0.43l0.96,0.86 l0.18,0.16l-0.16,0.18c-0.34,0.38-0.66,0.71-0.77,1.13c-0.12,0.41,0.01,0.85,0.27,1.22l1.84,2.33l1.86,2.34l0.46,0.58 c0.15,0.19,0.35,0.4,0.42,0.73c0.09,0.49,0.2,0.96,0.33,1.44c0.51,1.9,1.38,3.7,2.36,5.41c0.99,1.71,2.15,3.34,3.55,4.72 c1.4,1.39,3.03,2.6,4.92,3.15c0.47,0.14,0.95,0.24,1.43,0.3c0.48,0.04,0.99,0.12,1.42,0.02c0.45-0.1,0.76-0.44,1.11-0.8l1.05-1.06 l8.41-8.49l4.21-4.24l2.1-2.12c0.36-0.33,0.59-0.68,0.61-1.1c0.03-0.4-0.16-0.83-0.46-1.1c-0.3-0.28-0.72-0.39-1.14-0.33 l-1.44,0.34c-0.99,0.2-1.99,0.34-3,0.41c-2.01,0.15-4.03,0.07-6.02-0.12c-4.01-0.35-7.93-1.45-11.66-2.89 c-0.48-0.19-0.95-0.4-1.41-0.68c-0.46-0.3-0.84-0.59-1.25-0.87l-2.44-1.71l-2.43-1.71c-0.32-0.21-0.68-0.25-1.01-0.1 c-0.17,0.08-0.32,0.19-0.47,0.34l-0.5,0.54l-0.29,0.32l-0.32-0.29l-1.28-1.17l-0.25-0.23l0.15-0.3c0.4-0.79,0.63-1.65,0.65-2.53 c0.01-0.44-0.04-0.88-0.13-1.31l-0.31-1.38l-1.27-5.54l-2.56-11.07l-1.26-5.54c-0.36-1.86-1-3.6-2.26-4.97 c-1.23-1.36-2.93-2.26-4.72-2.74c-1.77-0.47-3.73-0.3-5.6-0.36l-1.65-0.06l1.59-0.3c1.24-0.23,2.39-0.52,3.47-1.09 c1.08-0.55,2.06-1.29,2.86-2.19c1.63-1.8,2.52-4.23,2.46-6.66c-0.04-2.42-0.88-4.88-2.59-6.63C39.61,5.3,38.6,4.59,37.5,4.05 C36.43,3.44,35.19,3.3,34.01,3.01z"></path> </g> <g> <path class="st0" d="M71.12,80.07c-1.27-0.21-2.65-0.7-3.88-1.31c-1.24-0.64-2.39-1.45-3.42-2.4c-0.48-0.41-1.15-1.12-1.1-2.01 c0.03-0.89,0.66-1.62,1.47-1.89c0.87-0.29,1.78,0.16,2.28,0.73c0.45,0.48,0.95,0.92,1.46,1.32c1.04,0.81,2.24,1.39,3.5,1.78 c0.63,0.2,1.29,0.34,1.95,0.43l0.46,0.06c0.07,0,0.21-0.05,0.27-0.11l0.75-0.7c2.01-1.86,3.96-3.79,5.95-5.67l-0.01,0.22 l-0.09-0.11l0.14,0.06c-1.88,0.23-3.77,0.25-5.65,0.1c-1.88-0.15-3.76-0.41-5.61-0.81c-1.85-0.39-3.67-0.91-5.46-1.52 c-0.9-0.31-1.78-0.63-2.66-0.98c-0.12-0.05-0.22-0.09-0.22-0.08c0,0.02,0.15-0.03,0.11-0.02l-0.43,0.49l-0.95,1.06l-0.48,0.53 l-0.22,0.25c-0.05,0.05-0.08,0.1-0.1,0.15c-0.04,0.08-0.05,0.19-0.01,0.38l0.15,0.66c0.22,0.89,0.48,1.77,0.81,2.62 c0.66,1.7,1.5,3.34,2.62,4.8c1.13,1.44,2.39,2.84,4.01,3.65c0.4,0.2,0.83,0.37,1.27,0.48l0.33,0.08c0.06,0.02,0.15,0.01,0.24-0.01 c0.13-0.02,0.3-0.24,0.46-0.37C69.7,81.33,70.41,80.73,71.12,80.07z M71.22,80.04l-1.91,2.1c-0.19,0.17-0.27,0.39-0.6,0.54 c-0.14,0.05-0.29,0.08-0.46,0.06l-0.36-0.06c-0.47-0.1-0.94-0.25-1.39-0.44c-1.81-0.77-3.22-2.17-4.44-3.63 c-1.21-1.49-2.21-3.16-2.9-4.95c-0.35-0.89-0.64-1.81-0.87-2.74l-0.17-0.71c-0.06-0.27-0.08-0.65,0.07-1 c0.07-0.17,0.18-0.32,0.28-0.44l0.25-0.28l0.46-0.52l0.93-1.03l0.24-0.26c0.09-0.1,0.12-0.14,0.28-0.3 c0.13-0.15,0.52-0.29,0.75-0.23c0.24,0.05,0.34,0.11,0.44,0.15c0.86,0.36,1.72,0.7,2.6,1.02c1.75,0.63,3.53,1.18,5.33,1.64 c1.8,0.45,3.63,0.83,5.48,1.07c0.92,0.12,1.85,0.2,2.78,0.24c0.93,0.07,1.86-0.09,2.79-0.14l0.09,0l0.05,0.07l0.09,0.12l0.1,0.12 l-0.11,0.1c-2.02,1.85-3.91,3.83-5.8,5.82l-0.71,0.75c-0.18,0.18-0.38,0.28-0.65,0.31c-0.26,0-0.37-0.02-0.57-0.03 c-0.7-0.06-1.4-0.17-2.08-0.34c-1.38-0.34-2.68-0.98-3.83-1.82c-0.58-0.42-1.1-0.91-1.57-1.44c-0.39-0.44-0.91-0.68-1.39-0.53 c-0.49,0.15-0.93,0.63-0.94,1.13c-0.01,0.25,0.06,0.52,0.21,0.76c0.13,0.23,0.38,0.46,0.61,0.71 C66.19,77.81,68.55,79.12,71.22,80.04z"></path> </g> <g> <path class="st0" d="M33.21,6.35c-1.75-0.03-3.42,0.84-4.49,2.1c-1.08,1.27-1.7,2.84-1.75,4.48c-0.08,1.63,0.44,3.36,1.63,4.6 c1.18,1.24,2.92,1.88,4.59,1.78c1.68-0.08,3.25-0.81,4.38-1.98c1.13-1.17,1.73-2.77,1.75-4.38c0.03-1.61-0.56-3.2-1.62-4.48 C36.63,7.21,34.96,6.35,33.21,6.35z M33.21,6.25c1.74,0,3.55,0.54,4.94,1.76c1.42,1.19,2.22,3.07,2.22,4.95 c0.01,1.88-0.8,3.75-2.15,5.04c-1.34,1.31-3.23,1.99-5.05,1.87c-1.81-0.09-3.54-0.86-4.82-2.1c-1.29-1.23-2.16-2.97-2.23-4.83 c-0.08-1.85,0.73-3.75,2.14-4.93C29.67,6.8,31.47,6.26,33.21,6.25z"></path> </g> </svg> 