<?xml version="1.0" encoding="UTF-8"?> <!-- Generator: Adobe Illustrator 23.0.0, SVG Export Plug-In . SVG Version: 6.00 Build 0) --> <svg xmlns="http://www.w3.org/2000/svg" xmlns:xlink="http://www.w3.org/1999/xlink" version="1.1" id="Layer_1" x="0px" y="0px" viewBox="0 0 118.65 121.06" style="enable-background:new 0 0 118.65 121.06;" xml:space="preserve"> <style type="text/css"> .st0{fill:#676867;} </style> <path class="st0" d="M49.82,108.53c-8.9-5.78-11.32-15.41-15.01-24.29c0.39-0.22,0.78-0.44,1.18-0.66 c2.18,4.43,4.68,8.72,6.45,13.31c2.57,6.67,6.91,9.7,14.15,9.09c5.12-0.43,10.32-0.35,15.47-0.06c4.69,0.26,7.97-1.53,10.52-5.67 c-2.68-3.75-5.67-6.27-10.93-6.07c-11.47,0.43-17.05-4.28-20.55-15.5c-1.41-4.53-3.45-8.99-5.94-13.02 c-3.29-5.31-8.69-7.05-14.75-6.26c-6,0.79-11.3,3.53-12.73,9.64c-2.63,11.21-4.36,22.64-6.59,34.6c8.95,0,16.87,0,24.8,0 c0,0.3,0,0.6,0,0.9c-9.01,0-18.03,0-27.04,0c0-0.33,0-0.67,0-1c1.41-7.43,2.81-14.86,4.22-22.29c0.62-3.26,1.28-6.51,1.87-9.77 c1.33-7.3,5.48-12.09,12.78-13.6c8.19-1.7,15.25,0.26,19.98,7.71c1.85,2.91,3.41,6,5.58,9.84c4.16-9.53,10.85-8.39,18.24-5.94 c7.55,2.5,15.29,4.43,23.68,6.81c-1.2,1.77-2.24,3.3-3.76,5.52c-1.88-7.53-8.36-6.48-13.2-8.26c-0.59-0.22-1.73,1.03-2.61,1.59 l0.01,0.03C72.02,70.93,66.99,69.01,62,70c-2.63,0.52-5.41,4.21-6.62,7.1c-2.23,5.34,1.72,12.42,7.43,13.63 c7.02,1.49,14.22,3.79,21.84-1.01c-1.44,7.28,4.09,15.92-6.83,18.81C68.49,108.53,59.16,108.53,49.82,108.53z"></path> <path class="st0" d="M52.82,14.54c1.74,0.84,3.85,1.32,5.15,2.6c3.33,3.29,7.12,6.53,9.18,10.57c2.11,4.13,2.38,9.2,3.35,13.38 c-1.93,1.38-4.21,2.23-5.25,3.88c-6.28,9.97-14.06,13.5-23.15,10.1c-8.38-3.13-12.36-12.53-10.74-23.3 c1.49-9.88,8.17-14.17,16.46-17.22C49.49,14.54,51.16,14.54,52.82,14.54z M35.31,31.51c-4.28,8.77-1.19,17.63,6.97,21.48 c7.3,3.45,17.09-0.2,20.13-7.52c1.03-2.48,1.66-4.78-1.88-5.89C52.17,36.96,43.84,34.25,35.31,31.51z M34.96,29.25 c9.98,3.18,19.95,6.35,29.9,9.52c3.17-8.95-1.41-18.05-9.91-20.91C46.61,15.06,37.99,19.77,34.96,29.25z"></path> <path class="st0" d="M88.94,98c5.94-8.12,11.88-16.24,18.41-25.18c-16.51-4.59-32.3-8.97-48.08-13.36c0.14-0.51,0.28-1.03,0.42-1.54 c16.73,4.42,33.47,8.84,51.36,13.56c-7.21,9.51-14.02,18.49-20.82,27.46C89.79,98.63,89.37,98.31,88.94,98z"></path> <path class="st0" d="M75.6,75.14c-1.76,1.85-3.47,3.75-5.3,5.54c-1.73,1.69-3.46,3.92-7.15,0.25c4.47-2.07,8.45-3.92,12.45-5.76 C75.61,75.17,75.6,75.14,75.6,75.14z"></path> </svg> 