<?xml version="1.0" encoding="UTF-8"?> <!-- Generator: Adobe Illustrator 23.0.0, SVG Export Plug-In . SVG Version: 6.00 Build 0) --> <svg xmlns="http://www.w3.org/2000/svg" xmlns:xlink="http://www.w3.org/1999/xlink" version="1.1" id="Layer_1" x="0px" y="0px" viewBox="0 0 118.7 121.1" style="enable-background:new 0 0 118.7 121.1;" xml:space="preserve"> <style type="text/css"> .st0{fill:#FFFFFF;} </style> <path class="st0" d="M53.3,112.5c0.6-5.4,1-10.9,1.9-16.3c0.5-2.9,0.1-5-2.3-7c-7.7-6.6-15.1-13.6-22.9-20c-1.8-1.5-5.3-2-7.6-1.4 c-4.5,1.1-8.1,0.5-11.1-3.2c0-1,0-2,0-3c0.4-0.7,1-1.3,1.3-2c2.6-5.7,3.8-12.7,8-16.8c6.5-6.3,10.2-12.3,8.7-21.7 c-1-6.5,5.4-8.2,10-10.5c1.3,0,2.7,0,4,0c2,1.4,3.9,2.9,6.3,4.6c-1.4,1.7-2.7,3-3.7,4.4c-0.6,1-0.8,2.2-1.2,3.4 c1.2,0.2,2.5,0.7,3.7,0.5c1.7-0.3,3.3-1.1,5.4-1.9c0.3,6.5-1.6,11.2-6.9,13.8c-11.7,5.5-12,12.7-1.4,20.9 c9.3,7.2,18.8,14.3,28.3,21.2c0.8,0.6,2.5,0.6,3.5,0.2c17.9-7.5,23.9-5.1,32.1,12.9c0,2,0,4,0,6c-1.2,4.7-2.5,9.4-3.7,14.2 c-0.4,0-0.7-0.1-1.1-0.1c0.6-4.1,1-8.2,1.7-12.2c1.6-9.5-1.3-16.4-8.9-20.9c-5.1-3-10-2.6-15,0.5c-7.3,4.4-9.6,3.8-14.3-3 c-0.9-1.3-2.1-2.7-3.5-3.4c-4.5-2.5-9.3-4.4-13.6-7.3s-8-6.5-12.2-10.1c-3.2,2.3-6.4,4.7-9.9,7.3c5.3,9.9,12.7,17.2,22.1,22.7 c7.7,4.4,7.7,4.4,6.2,13.2c-0.9,5.1-1.8,10.1-2.8,15.2C54,112.5,53.7,112.5,53.3,112.5z M46.2,15.3c-8.9-2.9-14.9-0.3-14.9,6.4 c-0.1,5.6,1.3,11.3,2.2,17.7c5.2-2.5,9.2-4.4,13.6-6.5c-1.4-2.8-2.4-4.8-3.4-6.9c-1-2.1-1.9-4.1-3-6.4C42.4,18.3,43.9,17,46.2,15.3z M25.9,57.8c6.4,0,10.6-3.8,10.6-9.3c0-5-3.8-9.2-8.5-9.2c-4.4,0-9.6,6.3-9.7,11.6C18.4,54.6,21.9,57.8,25.9,57.8z M24.5,59.3 c-3.8,0.2-6.9,0.3-9.9,0.5c1.2,2.3,1.9,5.9,3.8,6.7C22.4,68.1,23.5,64.5,24.5,59.3z"></path> <path class="st0" d="M39.3,10.5c-4.6,2.3-11,4-10,10.5c1.5,9.4-2.3,15.3-8.7,21.7c-4.1,4.1-5.4,11.1-8,16.8c-0.3,0.7-0.9,1.3-1.3,2"></path> <path class="st0" d="M58.6,40.2c2.5-2.9,5.6-7,9.2-10.6c7-7,18-7.9,25.6-2.5c8.8,6.2,12.1,17.7,7.8,26.9 C95.8,65.2,85,70.7,74.8,67.3c-9.3-3.1-12-10.6-13.2-19.3C61.3,45.6,59.8,43.3,58.6,40.2z M97.6,51c-0.4-0.4-1.4-2.2-2.7-2.5 C86,46.9,76.9,45.6,68,44c-2.8-0.5-3.5,0.5-3.9,3c-1.4,9.6,7,19.4,16.7,19.6C88.8,66.7,97.5,59.3,97.6,51z M64.7,41.2 C76.4,43.1,88.1,45,100,47c-0.7-13.3-6.8-20.7-16.9-21.6C74.9,24.7,66.7,31.4,64.7,41.2z"></path> <image style="display:none;overflow:visible;enable-background:new ;" width="110" height="90" transform="matrix(0.9889 0 0 0.9889 248.6111 241.276)"> </image> </svg> 