<?xml version="1.0" encoding="UTF-8"?> <!-- Generator: Adobe Illustrator 23.0.0, SVG Export Plug-In . SVG Version: 6.00 Build 0) --> <svg xmlns="http://www.w3.org/2000/svg" xmlns:xlink="http://www.w3.org/1999/xlink" version="1.1" id="Layer_1" x="0px" y="0px" viewBox="0 0 118.7 121.1" style="enable-background:new 0 0 118.7 121.1;" xml:space="preserve"> <style type="text/css"> .st0{fill:#FFFFFF;} </style> <path class="st0" d="M49.8,108.5c-8.9-5.8-11.3-15.4-15-24.3c0.4-0.2,0.8-0.4,1.2-0.7c2.2,4.4,4.7,8.7,6.5,13.3 c2.6,6.7,6.9,9.7,14.1,9.1c5.1-0.4,10.3-0.3,15.5-0.1c4.7,0.3,8-1.5,10.5-5.7c-2.7-3.8-5.7-6.3-10.9-6.1c-11.5,0.4-17-4.3-20.5-15.5 c-1.4-4.5-3.5-9-5.9-13c-3.3-5.3-8.7-7-14.8-6.3c-6,0.8-11.3,3.5-12.7,9.6c-2.6,11.2-4.4,22.6-6.6,34.6c9,0,16.9,0,24.8,0 c0,0.3,0,0.6,0,0.9c-9,0-18,0-27,0c0-0.3,0-0.7,0-1c1.4-7.4,2.8-14.9,4.2-22.3c0.6-3.3,1.3-6.5,1.9-9.8c1.3-7.3,5.5-12.1,12.8-13.6 c8.2-1.7,15.3,0.3,20,7.7c1.8,2.9,3.4,6,5.6,9.8c4.2-9.5,10.8-8.4,18.2-5.9c7.6,2.5,15.3,4.4,23.7,6.8c-1.2,1.8-2.2,3.3-3.8,5.5 c-1.9-7.5-8.4-6.5-13.2-8.3c-0.6-0.2-1.7,1-2.6,1.6l0,0C72,70.9,67,69,62,70c-2.6,0.5-5.4,4.2-6.6,7.1c-2.2,5.3,1.7,12.4,7.4,13.6 c7,1.5,14.2,3.8,21.8-1c-1.4,7.3,4.1,15.9-6.8,18.8C68.5,108.5,59.2,108.5,49.8,108.5z"></path> <path class="st0" d="M52.8,14.5c1.7,0.8,3.8,1.3,5.2,2.6c3.3,3.3,7.1,6.5,9.2,10.6c2.1,4.1,2.4,9.2,3.3,13.4 c-1.9,1.4-4.2,2.2-5.3,3.9c-6.3,10-14.1,13.5-23.2,10.1c-8.4-3.1-12.4-12.5-10.7-23.3c1.5-9.9,8.2-14.2,16.5-17.2 C49.5,14.5,51.2,14.5,52.8,14.5z M35.3,31.5c-4.3,8.8-1.2,17.6,7,21.5c7.3,3.5,17.1-0.2,20.1-7.5c1-2.5,1.7-4.8-1.9-5.9 C52.2,37,43.8,34.3,35.3,31.5z M35,29.3c10,3.2,20,6.3,29.9,9.5c3.2-9-1.4-18-9.9-20.9C46.6,15.1,38,19.8,35,29.3z"></path> <path class="st0" d="M88.9,98c5.9-8.1,11.9-16.2,18.4-25.2c-16.5-4.6-32.3-9-48.1-13.4c0.1-0.5,0.3-1,0.4-1.5 c16.7,4.4,33.5,8.8,51.4,13.6C103.8,81,97,90,90.2,98.9C89.8,98.6,89.4,98.3,88.9,98z"></path> <path class="st0" d="M75.6,75.1c-1.8,1.8-3.5,3.8-5.3,5.5c-1.7,1.7-3.5,3.9-7.2,0.3C67.6,78.9,71.6,77,75.6,75.1 C75.6,75.2,75.6,75.1,75.6,75.1z"></path> </svg> 