<?xml version="1.0" encoding="UTF-8"?> <!-- Generator: Adobe Illustrator 23.0.0, SVG Export Plug-In . SVG Version: 6.00 Build 0) --> <svg xmlns="http://www.w3.org/2000/svg" xmlns:xlink="http://www.w3.org/1999/xlink" version="1.1" id="Layer_1" x="0px" y="0px" viewBox="0 0 118.7 121.1" style="enable-background:new 0 0 118.7 121.1;" xml:space="preserve"> <style type="text/css"> .st0{fill:#FFFFFF;} </style> <path class="st0" d="M111.8,104c-0.5,1.2-1.1,2.4-1.6,3.6c-0.3,0-0.5,0.1-0.7,0.1c-0.1-1.6-0.2-3.3-0.2-4.9 c0-19.8-0.1-39.6,0.1-59.4c0.1-4.5-1.3-5.7-5.7-5.6c-10.4,0.3-20.9,0.1-31.6,0.1c-0.6,3.5-1.1,6.6-1.6,9.6c-0.2,0-0.5,0-0.7,0 c-0.2-2.6-0.8-5.2-0.5-7.7c0.2-1.5,1.7-3.7,2.9-3.9c3.8-0.6,5.7-3,7.2-6c0.5-1,1.5-1.9,2.4-2.4c4.6-2.7,7.7-6.3,8-10.6 c3.4,4.4,7.3,9.4,11.2,14.4c-1.2-0.6-2.4-1.1-3.5-1.8c-6.6-4.1-8.9-4.1-15.2,0.5c-1,0.7-1.6,1.9-2.3,2.9c1.2,0.8,2.3,2.1,3.5,2.2 c4.5,0.3,9,0.4,13.4-0.1c1.5-0.2,2.7-2.5,4-3.8c3.7,2.7,7.3,5.3,11,8C111.8,60.7,111.8,82.4,111.8,104z"></path> <path class="st0" d="M8.8,88c4.6-9.9,8.2-12.7,16-11.7c2.3,0.3,4.4,1.8,6.6,2c2.2,0.2,5,0,6.7-1.2c10-7.1,19.6-14.7,29.6-21.8 c3.5-2.5,8.6,0.3,8.7,4.6c0.1,2.2-0.6,4.6-1.6,6.6c-4.2,8.4-11.4,13.7-19.5,18c-6.6,3.5-7,4.3-5.9,11.7c0.5,3.4,0.9,6.8,1.3,10.3 c-0.5,0.1-1,0.2-1.5,0.2c-0.8-6.1-1.7-12.1-2.2-18.2c-0.1-1,1.6-2.4,2.7-3.2c6.5-5,13.2-9.6,19.4-14.9c2.3-2,3.7-5.3,4.8-8.3 c0.4-1.2-0.7-3.8-1.9-4.5c-1.2-0.7-3.9-0.3-4.8,0.7c-6.9,7.6-15.5,12.4-24.5,16.8c-2.8,1.3-4.6,4.7-7.1,7.4c-2.4-1-5-2.2-7.6-3.2 c-9.2-3.5-16.7,1.6-16.5,11.3c0.1,4.9,0.8,9.9,0.4,15c-1-3.5-2-7.1-3.1-10.6C8.8,92.7,8.8,90.4,8.8,88z"></path> <path class="st0" d="M27.9,37.3c5.5,0.1,17.7,9.1,17.5,12.9c-0.8,13-7.8,21.9-16.9,21.5C20.7,71.4,12,61.6,12.4,53.6 C12.8,44.3,19.7,37.2,27.9,37.3z M39.4,52.2c-6.1,1.6-12.1,3.2-18.2,4.8c-1.2,0.3-2.4,1-3.5,1.4c-0.4,5.2,4.6,9.8,7.8,10.7 c4.4,1.3,10.4-0.4,13-4.1C41.3,61.1,42.2,56.9,39.4,52.2z M40,49.6c-3.4-8.4-10-11.8-16.7-9.1C16.8,43,14,49,16.3,56.1 C24,54,31.8,51.8,40,49.6z"></path> <path class="st0" d="M80.1,75.3c3.9,1.1,7.9,0.1,7.5,5.3c-0.3,2.7-0.6,5.1-4,5.1c-3.8-0.1-6.6-1.4-5.8-5.8 C78.1,78.2,79.4,76.7,80.1,75.3z"></path> <path class="st0" d="M102.4,60.4c0,3.9,0,6.2,0,9.8c-3.1-0.7-6.3-0.6-8.5-2.1c-1.1-0.7-1.1-5.7-0.2-6.2 C96.1,60.7,99.1,60.9,102.4,60.4z"></path> <path class="st0" d="M77.4,53.2c0.5-2.5,0.2-6.1,1.7-7.3c1.5-1.2,5.3-0.6,7.3,0.6c1.1,0.7,1.4,5.5,0.4,6.2c-2.1,1.5-5.2,1.5-7.9,2.1 C78.4,54.1,77.9,53.7,77.4,53.2z"></path> <path class="st0" d="M102.1,53.8c-3,0-5.6,0-8.6,0c0-2.7,0-5.3,0-8.2c2.7,0,5.5,0,8.6,0C102.1,48.1,102.1,50.6,102.1,53.8z"></path> <path class="st0" d="M93.3,84.4c0-2.6,0-4.9,0-7.6c2.9,0,5.7,0,8.9,0c0,2.4,0,4.8,0,7.6C99.5,84.4,96.6,84.4,93.3,84.4z"></path> <path class="st0" d="M82.4,92c4-0.6,5.1,1.5,5.2,4.9c0.1,3.6-2,3.9-4.8,3.9c-3.6,0.1-4.9-1.4-4.8-5C77.9,92.2,79.7,91.6,82.4,92z"></path> <path class="st0" d="M103.1,93.1c-0.7,2.3-0.7,5.5-2.2,6.5c-1.6,1.1-5,0.6-6.9-0.5c-1-0.6-1.1-5.3-0.4-5.7c2.4-1.2,5.4-1.3,8.1-1.8 C102.2,92.2,102.7,92.6,103.1,93.1z"></path> <path class="st0" d="M87.2,69.5c-2.5,0-4.6,0-7.8,0c2.3-1.4,3.8-2.4,5.6-3.5c-1-1.6-1.9-2.9-2.8-4.3C86.3,60.5,87.5,62.3,87.2,69.5z "></path> <path class="st0" d="M70.1,105.9c0-1,0-1.9,0-2.9c0-6.9,0-13.9,0-20.8c0.1,0,0.3,0,0.4,0c0,0.8,0,1.6,0,2.4c0,7.1,0,14.2,0,21.3 C70.3,105.9,70.2,105.9,70.1,105.9z"></path> </svg> 