<?xml version="1.0" encoding="UTF-8"?> <!-- Generator: Adobe Illustrator 23.0.0, SVG Export Plug-In . SVG Version: 6.00 Build 0) --> <svg xmlns="http://www.w3.org/2000/svg" xmlns:xlink="http://www.w3.org/1999/xlink" version="1.1" id="Layer_1" x="0px" y="0px" viewBox="0 0 118.65 121.06" style="enable-background:new 0 0 118.65 121.06;" xml:space="preserve"> <style type="text/css"> .st0{fill:#676767;} </style> <path class="st0" d="M111.82,104.03c-0.53,1.18-1.06,2.37-1.58,3.55c-0.25,0.03-0.49,0.06-0.74,0.09c-0.07-1.64-0.21-3.28-0.21-4.92 c-0.01-19.81-0.14-39.63,0.09-59.43c0.05-4.47-1.31-5.69-5.66-5.57c-10.45,0.29-20.91,0.09-31.63,0.09 c-0.57,3.53-1.06,6.58-1.55,9.64c-0.24,0.01-0.48,0.02-0.72,0.03c-0.23-2.57-0.84-5.19-0.53-7.7c0.18-1.46,1.7-3.72,2.87-3.9 c3.85-0.59,5.65-3,7.24-6.05c0.51-0.97,1.46-1.86,2.42-2.43c4.57-2.68,7.65-6.33,7.96-10.63c3.45,4.44,7.33,9.42,11.21,14.4 c-1.18-0.6-2.4-1.11-3.52-1.8c-6.62-4.15-8.86-4.13-15.24,0.48c-0.96,0.69-1.55,1.89-2.3,2.86c1.16,0.75,2.29,2.08,3.49,2.15 c4.47,0.26,8.99,0.44,13.42-0.06c1.46-0.16,2.68-2.45,4.01-3.77c3.65,2.66,7.31,5.32,10.96,7.98 C111.82,60.7,111.82,82.36,111.82,104.03z"></path> <path class="st0" d="M8.83,88.03c4.63-9.93,8.24-12.69,16.03-11.74c2.25,0.27,4.35,1.84,6.59,2.01c2.21,0.17,5,0.03,6.68-1.17 c10-7.1,19.65-14.69,29.64-21.81c3.49-2.49,8.56,0.26,8.72,4.58c0.08,2.2-0.58,4.63-1.56,6.63c-4.16,8.45-11.36,13.73-19.46,18 c-6.63,3.49-6.98,4.27-5.94,11.74c0.48,3.42,0.88,6.85,1.32,10.28c-0.5,0.08-0.99,0.15-1.49,0.23c-0.77-6.06-1.69-12.12-2.18-18.21 c-0.08-1.01,1.57-2.36,2.68-3.21c6.46-4.98,13.22-9.61,19.39-14.92c2.32-1.99,3.71-5.35,4.78-8.35c0.43-1.22-0.73-3.85-1.92-4.54 c-1.15-0.67-3.95-0.28-4.85,0.71c-6.88,7.58-15.48,12.41-24.54,16.82c-2.77,1.35-4.59,4.67-7.12,7.39 c-2.42-1.03-4.95-2.21-7.56-3.19c-9.16-3.47-16.69,1.59-16.53,11.3c0.08,4.94,0.8,9.87,0.36,15.02c-1.02-3.52-2.04-7.05-3.06-10.57 C8.83,92.69,8.83,90.36,8.83,88.03z"></path> <path class="st0" d="M27.94,37.35c5.51,0.13,17.71,9.12,17.47,12.87c-0.83,12.99-7.82,21.88-16.89,21.48 C20.67,71.36,12,61.62,12.37,53.56C12.8,44.31,19.67,37.16,27.94,37.35z M39.38,52.15c-6.11,1.6-12.14,3.15-18.16,4.78 c-1.24,0.34-2.39,0.97-3.48,1.42c-0.37,5.18,4.65,9.76,7.76,10.69c4.36,1.29,10.39-0.42,13-4.08C41.27,61.1,42.15,56.92,39.38,52.15 z M39.98,49.63c-3.44-8.41-9.97-11.76-16.74-9.14c-6.47,2.51-9.25,8.5-6.94,15.58C24.04,53.97,31.81,51.85,39.98,49.63z"></path> <path class="st0" d="M80.1,75.35c3.94,1.13,7.94,0.11,7.47,5.26c-0.25,2.74-0.57,5.09-3.97,5.05c-3.75-0.05-6.59-1.43-5.82-5.83 C78.07,78.17,79.38,76.69,80.1,75.35z"></path> <path class="st0" d="M102.43,60.41c0,3.91,0,6.21,0,9.76c-3.08-0.66-6.27-0.63-8.46-2.1c-1.07-0.72-1.07-5.68-0.18-6.16 C96.08,60.67,99.14,60.86,102.43,60.41z"></path> <path class="st0" d="M77.45,53.15c0.5-2.54,0.2-6.11,1.74-7.34c1.47-1.17,5.34-0.64,7.26,0.56c1.11,0.7,1.37,5.52,0.4,6.2 c-2.09,1.47-5.21,1.47-7.91,2.07C78.44,54.14,77.95,53.65,77.45,53.15z"></path> <path class="st0" d="M102.13,53.79c-2.96,0-5.58,0-8.6,0c0-2.71,0-5.26,0-8.2c2.72,0,5.46,0,8.6,0 C102.13,48.07,102.13,50.62,102.13,53.79z"></path> <path class="st0" d="M93.28,84.38c0-2.63,0-4.92,0-7.64c2.9,0,5.74,0,8.95,0c0,2.37,0,4.78,0,7.64 C99.49,84.38,96.64,84.38,93.28,84.38z"></path> <path class="st0" d="M82.36,92.03c4.03-0.61,5.09,1.49,5.19,4.86c0.1,3.55-1.96,3.89-4.78,3.93c-3.61,0.05-4.87-1.39-4.85-5.02 C77.95,92.2,79.66,91.57,82.36,92.03z"></path> <path class="st0" d="M103.12,93.11c-0.69,2.26-0.72,5.53-2.24,6.52c-1.62,1.05-5.01,0.6-6.89-0.48c-1-0.58-1.14-5.33-0.41-5.69 c2.4-1.2,5.37-1.26,8.12-1.76C102.17,92.17,102.65,92.64,103.12,93.11z"></path> <path class="st0" d="M87.21,69.5c-2.5,0-4.63,0-7.78,0c2.28-1.43,3.83-2.4,5.63-3.53c-1-1.55-1.87-2.87-2.76-4.25 C86.28,60.46,87.49,62.34,87.21,69.5z"></path> <path class="st0" d="M70.08,105.9c0-0.97,0-1.94,0-2.9c0-6.94,0-13.87,0-20.81c0.12,0,0.25,0,0.37,0c0,0.8,0,1.6,0,2.4 c0,7.1,0,14.21,0,21.31C70.33,105.9,70.2,105.9,70.08,105.9z"></path> </svg> 