<?xml version="1.0" encoding="UTF-8"?> <!-- Generator: Adobe Illustrator 23.0.0, SVG Export Plug-In . SVG Version: 6.00 Build 0) --> <svg xmlns="http://www.w3.org/2000/svg" xmlns:xlink="http://www.w3.org/1999/xlink" version="1.1" id="Layer_1" x="0px" y="0px" viewBox="0 0 118.65 121.06" style="enable-background:new 0 0 118.65 121.06;" xml:space="preserve"> <style type="text/css"> .st0{fill:#676767;} </style> <path class="st0" d="M111.96,115.21c-0.91-1.43-2.27-2.74-2.66-4.3C106,97.69,96.76,90.61,84.39,87.06 c-1.82-0.52-4.98,0.74-6.4,2.23c-6.72,7.07-13.12,14.48-15.3,24.7c-0.13-1.2-0.04-2.48-0.44-3.58c-1.44-3.93-2.59-8.08-4.76-11.59 c-1.69-2.72-5.11-4.31-7.1-6.91c-4.72-6.15-9.9-4.99-15.79-2.06c-8.85,4.41-14.93,10.82-16.99,20.74c-0.28,1.33-1.74,2.41-2.65,3.61 c0-0.67,0-1.33,0-2c2.25-14.49,11.6-22.35,24.68-27.18c6.49-2.39,8.44-7.39,6.17-13.67c-1.63-4.52-3.27-9.09-5.49-13.33 c-1.32-2.51-3.49-4.85-5.82-6.5c-3.52-2.49-4.31-4.57-1.14-7.97c1.63-1.74,3.11-4.11,3.52-6.41c2.2-12.41,9.73-19.55,21.48-22.87 c0.59-0.17,1.07-0.7,1.6-1.06c2,0,4,0,6,0c3.94,1.67,8.57,2.54,11.65,5.2c4.15,3.58,7.5,8.29,10.44,12.98 c2.69,4.3,4.25,9.28,6.55,13.84c1.47,2.91,0.44,4.18-1.99,6.01c-2.56,1.93-4.53,4.85-6.27,7.64c-1.65,2.65-2.46,5.8-4,8.53 c-4.95,8.81-3.03,14.72,6.5,18.44c8.85,3.45,16.28,8.43,20.04,17.53c1.3,3.15,2.06,6.53,3.07,9.81 C111.96,113.88,111.96,114.54,111.96,115.21z M60.07,42.99c-2.05,0.25-5.39,0.42-8.63,1.09c-6.97,1.43-10.57,7.03-9.3,14.06 c2.17,11.93,11.16,18.16,25.07,17.36c8.35-0.48,17.4-10.51,18-19.94c0.46-7.14-3.26-11.29-10.43-11.68 C70.3,43.62,65.83,43.33,60.07,42.99z M71.6,35.02c-0.49,0.04-0.98,0.09-1.47,0.13c-0.7-4.96-1.34-9.94-2.14-14.89 c-0.36-2.24-0.58-4.73-4.1-4.28c-2.78,0.36-5.09,0.43-5.34,4.3c-0.33,5-1.42,9.95-2.19,14.92c-0.39-0.01-0.77-0.02-1.16-0.03 c0-2.54,0-5.09,0-7.63c0-2.54,0-5.08,0-7.79c-8.61,1.91-14.01,7.72-15.21,15.54c-0.73,4.78,0.25,6.02,5.09,6.04 c11.65,0.05,23.3,0.02,34.95,0.02c7.33,0,7.6-0.36,6.17-7.69c-1.52-7.73-8.27-13.67-15.34-13.06C71.09,25.39,71.34,30.21,71.6,35.02 z M63.55,100.7c4.88-4.44,9.56-7.97,13.22-12.36c1.67-2,2-5.78,1.57-8.54c-0.19-1.19-3.79-2.5-5.91-2.63 c-5.96-0.35-11.98,0.17-17.93-0.22c-4.85-0.32-6.52,2.04-5.97,6.15c0.33,2.49,1.25,5.39,2.92,7.11 C55.21,94.09,59.61,97.35,63.55,100.7z"></path> </svg> 