<?xml version="1.0" encoding="UTF-8"?> <!-- Generator: Adobe Illustrator 23.0.0, SVG Export Plug-In . SVG Version: 6.00 Build 0) --> <svg xmlns="http://www.w3.org/2000/svg" xmlns:xlink="http://www.w3.org/1999/xlink" version="1.1" id="Layer_1" x="0px" y="0px" viewBox="0 0 118.7 121.1" style="enable-background:new 0 0 118.7 121.1;" xml:space="preserve"> <style type="text/css"> .st0{fill:#FFFFFF;} </style> <path class="st0" d="M112,115.2c-0.9-1.4-2.3-2.7-2.7-4.3C106,97.7,96.8,90.6,84.4,87.1c-1.8-0.5-5,0.7-6.4,2.2 c-6.7,7.1-13.1,14.5-15.3,24.7c-0.1-1.2,0-2.5-0.4-3.6c-1.4-3.9-2.6-8.1-4.8-11.6c-1.7-2.7-5.1-4.3-7.1-6.9c-4.7-6.2-9.9-5-15.8-2.1 c-8.9,4.4-14.9,10.8-17,20.7c-0.3,1.3-1.7,2.4-2.6,3.6c0-0.7,0-1.3,0-2C17.2,97.7,26.6,89.9,39.6,85c6.5-2.4,8.4-7.4,6.2-13.7 c-1.6-4.5-3.3-9.1-5.5-13.3c-1.3-2.5-3.5-4.8-5.8-6.5c-3.5-2.5-4.3-4.6-1.1-8c1.6-1.7,3.1-4.1,3.5-6.4c2.2-12.4,9.7-19.5,21.5-22.9 c0.6-0.2,1.1-0.7,1.6-1.1c2,0,4,0,6,0c3.9,1.7,8.6,2.5,11.7,5.2c4.2,3.6,7.5,8.3,10.4,13c2.7,4.3,4.3,9.3,6.6,13.8 c1.5,2.9,0.4,4.2-2,6c-2.6,1.9-4.5,4.8-6.3,7.6c-1.7,2.7-2.5,5.8-4,8.5c-4.9,8.8-3,14.7,6.5,18.4c8.8,3.4,16.3,8.4,20,17.5 c1.3,3.2,2.1,6.5,3.1,9.8C112,113.9,112,114.5,112,115.2z M60.1,43c-2,0.3-5.4,0.4-8.6,1.1c-7,1.4-10.6,7-9.3,14.1 c2.2,11.9,11.2,18.2,25.1,17.4c8.3-0.5,17.4-10.5,18-19.9c0.5-7.1-3.3-11.3-10.4-11.7C70.3,43.6,65.8,43.3,60.1,43z M71.6,35 c-0.5,0-1,0.1-1.5,0.1c-0.7-5-1.3-9.9-2.1-14.9c-0.4-2.2-0.6-4.7-4.1-4.3c-2.8,0.4-5.1,0.4-5.3,4.3c-0.3,5-1.4,10-2.2,14.9 c-0.4,0-0.8,0-1.2,0c0-2.5,0-5.1,0-7.6s0-5.1,0-7.8c-8.6,1.9-14,7.7-15.2,15.5c-0.7,4.8,0.3,6,5.1,6c11.7,0,23.3,0,34.9,0 c7.3,0,7.6-0.4,6.2-7.7c-1.5-7.7-8.3-13.7-15.3-13.1C71.1,25.4,71.3,30.2,71.6,35z M63.5,100.7c4.9-4.4,9.6-8,13.2-12.4 c1.7-2,2-5.8,1.6-8.5c-0.2-1.2-3.8-2.5-5.9-2.6c-6-0.3-12,0.2-17.9-0.2c-4.8-0.3-6.5,2-6,6.2c0.3,2.5,1.3,5.4,2.9,7.1 C55.2,94.1,59.6,97.3,63.5,100.7z"></path> </svg> 