<?xml version="1.0" encoding="UTF-8"?> <!-- Generator: Adobe Illustrator 23.0.0, SVG Export Plug-In . SVG Version: 6.00 Build 0) --> <svg xmlns="http://www.w3.org/2000/svg" xmlns:xlink="http://www.w3.org/1999/xlink" version="1.1" id="Layer_1" x="0px" y="0px" viewBox="0 0 118.65 121.06" style="enable-background:new 0 0 118.65 121.06;" xml:space="preserve"> <style type="text/css"> .st0{fill:#676767;} </style> <g> <path class="st0" d="M107.87,116.58c-1.51-0.46-2.74-1.59-3.37-3.02c-0.33-0.7-0.53-1.45-0.74-2.18l-0.63-2.18l-2.53-8.73 l-1.26-4.37c-0.22-0.75-0.35-1.54-0.4-2.32c-0.05-0.79-0.01-1.54-0.02-2.3l0.03-4.55l0.02-2.27c0.01-0.76,0.03-1.52-0.04-2.24 l0.69,0.45c-2.76,1.09-5.54,2.33-8.32,3.49l-2.08,0.88c-0.78,0.32-1.13,0.48-1.28,1.03c-0.07,0.25-0.13,0.68-0.2,1.04l-0.2,1.11 l-0.4,2.22l-1.6,8.9c-0.25,1.62-1.21,3.29-2.78,4.14c-1.57,0.88-3.52,0.79-5.06-0.06c-1.57-0.86-2.54-2.61-2.63-4.32 c-0.07-0.86,0.11-1.73,0.25-2.43l0.41-2.22l1.66-8.88l0.82-4.45c0.17-0.83,0.5-1.68,1.05-2.39c0.54-0.72,1.26-1.26,2-1.66 c0.79-0.39,1.44-0.63,2.14-0.94l2.08-0.88l4.15-1.76l-0.51,0.96l-2.55-13.33l-1.27-6.75c-0.06-0.38,0.05-1.07,0.44-1.46 c0.36-0.39,0.73-0.53,0.93-0.65c0.49-0.27,0.97-0.54,1.44-0.83c0.95-0.57,1.87-1.18,2.75-1.83l0.78,1.52 c-2.64,0.87-5.32,1.84-7.97,2.75l-3.99,1.39c-1.35,0.53-3,0.84-4.54,0.6l-8.38-1.26l-4.18-0.63l-2.09-0.32 c-0.7-0.11-1.41-0.29-2.12-0.43l0.75-0.34c-0.16,0.22-0.34,0.69-0.6,1.06c-0.23,0.39-0.55,0.73-0.89,1.04 c-0.7,0.6-1.61,1.02-2.56,1.04c-0.95,0.05-1.87-0.26-2.62-0.76c-0.78-0.53-1.27-1.08-1.87-1.6l-6.97-6.39 c-1.14-1.06-2.41-2.11-3.39-3.42c-1.03-1.27-1.73-2.78-2.48-4.13l-4.51-8.28l0.76-0.31c0.19,1.01,0.59,2.07,0.88,3.1l0.94,3.11 l1.88,6.22c0.25,0.99,0.98,1.74,1.72,2.53c0.19,0.2,0.41,0.44,0.55,0.74c0.15,0.3,0.19,0.67,0.16,0.97 c-0.09,0.61-0.2,1.09-0.3,1.64l-1.21,6.39l-0.3,1.6l-0.15,0.8c-0.06,0.24-0.04,0.44,0.01,0.68c0.05,0.23,0.14,0.45,0.27,0.62 l0.51,0.62l1.04,1.25l4.18,4.97c0.34,0.41,0.73,0.82,1.03,1.31c0.31,0.48,0.55,1.01,0.7,1.57c0.15,0.55,0.22,1.13,0.22,1.69 l-0.01,1.63l-0.06,6.5l-0.06,6.5l-0.03,3.25c0.01,1.07-0.06,2.28-0.59,3.33c-0.51,1.07-1.49,1.88-2.56,2.3 c-1.08,0.46-2.35,0.49-3.46,0.08c-1.12-0.41-2.06-1.24-2.62-2.28c-0.29-0.52-0.46-1.09-0.57-1.67c-0.09-0.6-0.07-1.14-0.07-1.68 l0.06-13.02l0.01-3.23c0-0.23-0.06-0.46-0.09-0.48l-0.49-0.59l-1.05-1.24c-1.4-1.64-2.85-3.23-4.38-4.74l1.02-0.52 c0.21,1.31,0.54,2.66,0.64,4.08c0.04,0.68,0.09,1.38,0.06,2.11c-0.02,0.36-0.05,0.73-0.13,1.11c-0.07,0.37-0.21,0.77-0.33,1.06 l-2.85,7.65l-2.85,7.65l-0.71,1.91c-0.13,0.34-0.21,0.59-0.39,1c-0.23,0.51-0.7,0.87-1.12,1.05c-0.87,0.35-1.66,0.31-2.4,0.24 c-0.75-0.09-1.46-0.27-2.15-0.5c-0.69-0.24-1.36-0.54-2-0.92c-0.64-0.39-1.26-0.84-1.78-1.55c-0.25-0.35-0.48-0.81-0.51-1.36 c-0.01-0.27,0.02-0.55,0.11-0.81c0.07-0.22,0.12-0.34,0.18-0.51l0.71-1.91l2.86-7.64l1.44-3.82c0.46-1.26,0.97-2.52,1.09-3.68 c0.13-1.15-0.14-2.46-0.37-3.79L20,64.65l-0.69-4.01c-0.29-1.38-0.38-2.9-0.27-4.31c0.1-1.43,0.35-2.8,0.61-4.15l0.75-4l2.99-16.03 c0.26-1.35,0.48-2.64,0.77-4.04c0.32-1.43,0.86-2.88,1.8-4.11c0.93-1.23,2.25-2.24,3.73-2.73c1.47-0.52,3.04-0.61,4.5-0.41 c0.77,0.1,1.38,0.22,2.07,0.35c0.68,0.13,1.39,0.27,2.1,0.49c0.71,0.22,1.44,0.52,2.1,0.95c0.68,0.43,1.26,0.96,1.76,1.51 c1.03,1.12,1.8,2.57,2.07,4.1c0.28,1.54,0.12,3.07-0.22,4.48l-0.48,2l-1.33-1.57l-2.53-2.98l1.25,0.26l-0.19,0.09l0.47-1.4 c0.98,1.92,2.06,3.88,3.09,5.81l1.56,2.91l0.78,1.46c0.26,0.49,0.52,1.02,0.71,1.21l9.7,8.84l-1.54,0.22l0.61-0.97 c0.25-0.36,0.54-0.71,0.89-1.01c0.69-0.62,1.64-1,2.55-1.08c0.45-0.04,0.9-0.02,1.32,0.04L62,46.71l2.16,0.31l8.64,1.26l2.16,0.32 l1.04,0.15c0.1,0.01,0.2,0.01,0.29-0.01c0.05-0.01,0.07-0.01,0.12-0.03l0.26-0.09l4.13-1.42l4.13-1.42L87,45.07 c0.66-0.24,1.47-0.45,1.9-0.75l0.51,1.66l-2.55,0.27l-0.53,0.06l-0.29-0.44l-0.21-0.32l-0.46-0.7l0.66-0.47 c0.68-0.49,1.31-1.28,2.4-1.85c0.64-0.29,1.02-0.34,1.51-0.5l1.41-0.4c1.9-0.49,3.88-0.94,6.02-0.66c1.05,0.15,2.1,0.51,3.01,1.09 c0.91,0.58,1.68,1.36,2.27,2.23c0.6,0.88,1.02,1.85,1.29,2.85c0.26,1.04,0.38,1.93,0.57,2.89l4.09,22.69l0.5,2.86 c0.14,0.99,0.19,1.98,0.19,2.95c-0.03,1.95-0.13,3.85-0.19,5.78l-0.21,5.76c-0.02,0.95-0.13,1.94-0.06,2.83 c0.05,0.91,0.33,1.8,0.58,2.75l2.94,11.15l0.74,2.79c0.12,0.47,0.25,0.92,0.35,1.41c0.08,0.49,0.11,0.99,0.07,1.49 c-0.1,0.99-0.54,1.96-1.26,2.66c-0.35,0.35-0.76,0.64-1.19,0.87c-0.43,0.23-0.93,0.37-1.32,0.59l-0.02,0.01l-0.03,0L107.87,116.58z M107.9,116.38l1.77-0.02l-0.05,0.01c0.45-0.25,0.89-0.37,1.3-0.61c0.41-0.23,0.78-0.51,1.11-0.85c0.65-0.66,1.03-1.56,1.1-2.47 c0.03-0.46-0.01-0.92-0.09-1.38c-0.1-0.45-0.24-0.91-0.38-1.37l-0.8-2.77l-3.2-11.08c-0.26-0.91-0.58-1.86-0.67-2.87 c-0.1-1.03-0.01-1.96-0.01-2.93l0.12-5.76c0.03-1.91,0.1-3.85,0.1-5.75c-0.01-0.94-0.07-1.88-0.22-2.79l-0.54-2.81l-4.43-22.62 c-0.19-0.92-0.35-1.94-0.57-2.76c-0.24-0.85-0.6-1.66-1.09-2.37c-0.97-1.43-2.5-2.4-4.2-2.6c-1.69-0.22-3.56,0.18-5.35,0.67 l-1.36,0.4c-0.43,0.14-1,0.28-1.23,0.41c-0.64,0.32-1.27,1.04-2.12,1.71l0.2-1.17l0.21,0.31l-0.82-0.39l2.55-0.29l4.14-0.47 l-3.62,2.13c-0.82,0.48-1.44,0.6-2.14,0.88l-2.06,0.73l-4.12,1.46l-4.12,1.46l-0.26,0.09c-0.12,0.04-0.28,0.09-0.41,0.11 c-0.27,0.05-0.53,0.06-0.8,0.04l-1.12-0.15l-2.17-0.3L63.89,49l-2.16-0.3l-1.08-0.15c-0.3-0.04-0.59-0.05-0.86-0.02 c-0.55,0.05-1.01,0.25-1.41,0.59c-0.2,0.17-0.38,0.39-0.55,0.63l-0.55,0.89l-0.64,1.03l-0.9-0.81l-4.9-4.44l-4.96-4.52 c-0.55-0.64-0.72-1.14-1-1.61l-0.78-1.46l-1.57-2.91c-1.04-1.95-2.09-3.85-3.13-5.85l-0.48-0.93l0.95-0.47l0.19-0.09l0.73-0.36 l0.53,0.62l2.54,2.98l-1.81,0.43c0.29-1.22,0.4-2.46,0.19-3.61c-0.21-1.15-0.76-2.19-1.57-3.07c-0.82-0.94-1.73-1.49-2.93-1.85 c-0.58-0.18-1.21-0.31-1.87-0.43c-0.65-0.12-1.36-0.25-1.95-0.33c-2.45-0.35-4.9,0.4-6.31,2.31c-0.71,0.93-1.17,2.08-1.45,3.29 c-0.27,1.26-0.52,2.65-0.78,3.97l-3.07,16.02l-0.78,4.01c-0.26,1.33-0.5,2.63-0.6,3.91c-0.1,1.3-0.04,2.52,0.22,3.81l0.68,4.03 l0.69,4.03c0.21,1.34,0.53,2.73,0.37,4.31c-0.19,1.56-0.76,2.84-1.22,4.12l-1.47,3.8l-2.95,7.6l-0.74,1.9 c-0.05,0.15-0.14,0.34-0.17,0.45c-0.02,0.07-0.03,0.13-0.03,0.19c0,0.13,0.07,0.32,0.21,0.52c0.59,0.82,1.81,1.49,2.96,1.91 c0.59,0.21,1.2,0.37,1.81,0.45c0.59,0.08,1.22,0.07,1.61-0.1c0.2-0.08,0.29-0.18,0.35-0.29c0.1-0.21,0.24-0.6,0.35-0.9l0.73-1.9 l2.94-7.6l2.94-7.6c0.52-1.14,0.43-2.4,0.36-3.76c-0.07-1.29-0.37-2.6-0.58-3.98l-0.28-1.83l1.3,1.31 c1.54,1.56,2.99,3.19,4.39,4.87l1.04,1.26L37,73.74c0.27,0.44,0.25,0.78,0.27,1.08l-0.05,3.27l-0.22,13 c-0.01,0.54-0.03,1.09,0.04,1.57c0.09,0.49,0.22,0.97,0.46,1.4c0.46,0.87,1.23,1.58,2.15,1.92c1.82,0.73,4.2-0.17,5.07-1.95 c0.46-0.9,0.54-1.93,0.53-3.01l0.05-3.25l0.09-6.5l0.09-6.5c-0.01-1.1,0.12-2.17-0.17-3.15c-0.13-0.49-0.34-0.96-0.62-1.4 c-0.27-0.43-0.62-0.82-0.97-1.24l-4.18-4.99l-1.05-1.24l-0.53-0.63c-0.2-0.27-0.31-0.56-0.39-0.86c-0.07-0.29-0.09-0.65-0.02-0.93 l0.15-0.8l0.29-1.6l1.17-6.4c0.09-0.52,0.21-1.1,0.28-1.56c0.05-0.46-0.14-0.78-0.52-1.16c-0.74-0.76-1.6-1.64-1.9-2.79 c-1.27-4.16-2.6-8.25-3.81-12.48l-0.96-3.34l1.72,3.04l4.67,8.26c0.8,1.39,1.45,2.75,2.44,3.93c0.94,1.21,2.13,2.16,3.31,3.23 l7.07,6.29c0.59,0.5,1.19,1.11,1.73,1.45c0.57,0.37,1.22,0.56,1.85,0.52c0.64-0.02,1.23-0.31,1.72-0.74 c0.23-0.23,0.46-0.47,0.63-0.77c0.19-0.29,0.28-0.56,0.55-1.01l0.26-0.43l0.49,0.09c0.68,0.13,1.34,0.28,2.03,0.38l2.1,0.28 l4.2,0.57l8.38,1.14c1.27,0.18,2.47-0.04,3.75-0.53l3.99-1.41c2.67-0.93,5.3-1.9,8.01-2.8l5.04-1.68l-4.26,3.2 c-0.93,0.7-1.9,1.34-2.89,1.94c-0.49,0.3-0.99,0.59-1.5,0.87c-0.29,0.15-0.45,0.25-0.47,0.29c0,0.02,0-0.06,0,0.12l1.28,6.59 l2.49,13.35l0.13,0.69l-0.64,0.27l-4.18,1.74l-2.09,0.87c-0.68,0.29-1.44,0.58-2,0.86c-1.18,0.59-1.97,1.6-2.21,2.89L79,88.09 l-1.71,8.87l-0.43,2.22c-0.15,0.78-0.28,1.4-0.24,2.05c0.06,1.29,0.74,2.49,1.83,3.1c1.09,0.61,2.51,0.68,3.6,0.08 c1.11-0.59,1.86-1.76,2.09-3.1l1.72-8.86l0.43-2.22l0.22-1.11c0.08-0.38,0.12-0.7,0.25-1.18c0.12-0.44,0.44-0.94,0.86-1.22 c0.42-0.29,0.82-0.41,1.15-0.56l2.09-0.85c2.8-1.12,5.54-2.31,8.39-3.38l0.64-0.24l0.05,0.7c0.06,0.8,0.03,1.55,0.01,2.31 l-0.06,2.27l-0.13,4.54c-0.06,1.53-0.12,2.99,0.28,4.41l1.16,4.4l2.31,8.79l0.58,2.2c0.19,0.74,0.36,1.46,0.67,2.14 c0.3,0.68,0.71,1.31,1.24,1.82C106.55,115.76,107.23,116.14,107.9,116.38z"></path> </g> <g> <path class="st0" d="M9.81,116.56c-0.06-0.39-0.13-0.81-0.18-1.24l-0.06-1.18l-0.08-2.35l-0.16-4.71 c-0.06-1.57-0.07-3.14-0.11-4.71l-0.1-4.71l-0.01-0.64l0.67-0.02c5.72-0.14,11.45-0.19,17.17-0.22c5.72-0.05,11.45-0.03,17.17,0.08 l17.17,0.39l4.29,0.06c0.72,0.02,1.41,0,2.17,0.05c0.37,0.04,0.76,0.1,1.14,0.25c0.38,0.15,0.74,0.42,0.97,0.78 c0.46,0.73,0.48,1.51,0.49,2.24l0.01,2.15l0.03,4.29l-0.34-0.34c5.43-0.01,10.86-0.14,16.29-0.24l4.07-0.09 c0.67,0,1.37-0.07,2.17,0.07c0.39,0.07,0.83,0.2,1.23,0.48c0.4,0.28,0.71,0.72,0.86,1.13c0.31,0.83,0.31,1.59,0.32,2.28l0.03,2.04 l0.06,4.07l0.01,0.86l-0.88,0.01l-21.28,0.17c-7.1,0.03-14.2-0.01-21.27-0.09l-21.1-0.35l-10.45-0.23L9.81,116.56z M9.94,116.41 l10.75-0.29l10.64-0.23l21.08-0.35c6.99-0.08,13.95-0.12,20.91-0.09l20.9,0.17l-0.86,0.87l0.05-4.07l0.02-2.04 c0.01-0.67-0.01-1.28-0.17-1.74c-0.16-0.43-0.4-0.63-0.97-0.76c-0.54-0.13-1.2-0.11-1.89-0.13l-4.07-0.09 c-5.43-0.1-10.86-0.23-16.29-0.24l-0.34,0l0-0.34l0.03-4.29l0-2.14c-0.01-0.69-0.07-1.4-0.41-1.9c-0.32-0.5-0.97-0.68-1.64-0.73 c-0.67-0.05-1.41-0.01-2.12,0l-4.29,0.06l-17.17,0.38c-5.72,0.11-11.45,0.13-17.17,0.08c-5.72-0.03-11.45-0.08-17.17-0.22 l0.65-0.65l-0.1,4.71c-0.04,1.57-0.05,3.14-0.11,4.71l-0.15,4.71l-0.08,2.35l-0.05,1.17C9.95,115.66,9.94,116.02,9.94,116.41z"></path> </g> <g> <path class="st0" d="M52.32,10.76c-0.07,2.3-0.7,4.69-2.25,6.65c-1.52,1.96-4.13,3.15-6.67,2.94c-2.53-0.17-4.79-1.51-6.41-3.23 c-1.63-1.72-2.72-3.99-2.86-6.45c-0.17-2.44,0.71-5.02,2.48-6.86c1.72-1.86,4.28-3.06,6.89-2.96c1.28,0.06,2.56,0.33,3.71,0.89 c1.16,0.54,2.16,1.36,2.94,2.33C51.72,6.03,52.37,8.45,52.32,10.76z M52.12,10.75c0-1.14-0.25-2.27-0.78-3.26 c-0.52-0.99-1.28-1.82-2.12-2.48c-1.72-1.28-3.71-2.02-5.75-2.02c-2-0.03-4.01,0.73-5.51,2.15c-1.48,1.42-2.5,3.39-2.73,5.55 c-0.23,2.15,0.58,4.47,2.22,5.97c1.63,1.54,3.92,2.12,5.99,2.02c2.07-0.08,4.04-0.83,5.72-2.17 C50.86,15.21,52.11,13.05,52.12,10.75z"></path> </g> <g> <path class="st0" d="M90.22,20.53c2.3-0.03,4.72,0.62,6.66,2.2c1.93,1.56,3.08,4.13,2.98,6.64c-0.07,2.57-1.42,4.85-3.15,6.45 c-1.74,1.62-3.98,2.7-6.42,2.91c-2.44,0.25-5.06-0.63-6.88-2.42c-1.86-1.74-3-4.28-2.99-6.85c0.02-1.28,0.26-2.58,0.81-3.74 c0.53-1.17,1.36-2.18,2.33-2.95C85.51,21.2,87.92,20.58,90.22,20.53z M90.22,20.73c-2.3,0.03-4.45,1.27-5.75,2.96 c-1.29,1.7-2.01,3.7-1.94,5.73c0.05,2.02,0.78,4.04,2.19,5.55c1.41,1.49,3.37,2.5,5.54,2.66c2.16,0.16,4.46-0.64,5.98-2.28 c1.56-1.62,2.13-3.91,1.94-5.96c-0.16-2.09-0.91-4.07-2.22-5.77c-0.66-0.84-1.49-1.61-2.48-2.12 C92.5,20.97,91.36,20.72,90.22,20.73z"></path> </g> </svg> 