<?xml version="1.0" encoding="UTF-8"?> <svg xmlns="http://www.w3.org/2000/svg" id="Layer_1" data-name="Layer 1" viewBox="0 0 281.34 62.34"><defs><style>.cls-1{fill:#d02527;}.cls-2{fill:#606161;}.cls-3{fill:#231f20;}.cls-4{fill:#101334;}</style></defs><path class="cls-1" d="M14.74,54.06l-4.07,0L9.9,55.75H7.82L11.69,48h2l3.95,7.75H15.52Zm-.65-1.36-1.4-3-1.38,3Z"></path><path class="cls-1" d="M29.07,47.89l0,7.77H27.44L23.05,51l0,4.72h-2l0-7.77h1.68l4.38,4.7,0-4.72Z"></path><path class="cls-1" d="M37.88,52.87v2.76h-2V52.86l-3.42-5h2.16l2.35,3.44,2.33-3.46h2Z"></path><path class="cls-1" d="M63.91,47.74l-2.84,7.79H58.89l-2-5.25-2,5.27H52.81L49.89,47.8H52l2,5.45,2-5.47h1.88l2,5.5,2-5.52Z"></path><path class="cls-1" d="M66.9,51.62c0-2.31,2-4,4.78-4s4.8,1.68,4.81,4-2,4-4.78,4S66.91,53.92,66.9,51.62Zm7.54,0a2.76,2.76,0,1,0-2.74,2.5A2.53,2.53,0,0,0,74.44,51.58Z"></path><path class="cls-1" d="M86.12,55.42l-1.7-2.16H82.55v2.16h-2l0-7.77h3.79c2.35,0,3.82,1.06,3.82,2.8a2.53,2.53,0,0,1-1.79,2.46l2,2.49Zm-1.93-6.3H82.54v2.71H84.2c1.24,0,1.86-.52,1.86-1.36S85.43,49.12,84.19,49.12Z"></path><path class="cls-1" d="M95.42,52.33l-1.18,1.09v2h-2l0-7.77h2l0,3.63L98.1,47.6h2.26l-3.62,3.48,3.86,4.29H98.24Z"></path><path class="cls-1" d="M103.38,54.34a1.12,1.12,0,0,1,1.22-1.07,1.11,1.11,0,0,1,1.21,1.06,1.13,1.13,0,0,1-1.21,1.1A1.14,1.14,0,0,1,103.38,54.34Z"></path><path class="cls-2" d="M115.26,51.41c0-2.31,2-4,4.78-4s4.81,1.68,4.82,4-2,4-4.78,4S115.27,53.72,115.26,51.41Zm7.54,0a2.75,2.75,0,1,0-2.73,2.49A2.53,2.53,0,0,0,122.8,51.38Z"></path><path class="cls-2" d="M128.81,51.82l0-4.36h2l0,4.28c0,1.48.73,2.08,2,2.08s1.95-.62,1.95-2.1l0-4.28h2l0,4.35c0,2.29-1.46,3.56-3.95,3.57S128.82,54.1,128.81,51.82Z"></path><path class="cls-2" d="M146.85,55.16,145.15,53h-1.86v2.16h-2l0-7.77H145c2.34,0,3.81,1.06,3.82,2.8a2.55,2.55,0,0,1-1.8,2.46l2,2.49Zm-1.93-6.3h-1.65v2.71h1.65c1.24,0,1.87-.52,1.86-1.36S146.16,48.86,144.92,48.86Z"></path><path class="cls-2" d="M167,55.07l0-4.66-2.56,3.85h-.92l-2.58-3.73,0,4.57H159l0-7.76h1.68l3.3,4.81,3.21-4.84h1.67l.06,7.77Z"></path><path class="cls-2" d="M179.24,53.35l-4.07,0L174.4,55h-2.08l3.87-7.79h2l4,7.75H180ZM178.6,52l-1.41-3-1.38,3Z"></path><path class="cls-2" d="M193.57,47.19l0,7.77h-1.67l-4.39-4.7,0,4.72h-2l0-7.77h1.68l4.38,4.7,0-4.72Z"></path><path class="cls-2" d="M205.76,50c0,1.73-1.45,2.82-3.79,2.83H200.2v2.15h-2l0-7.77,3.79,0C204.28,47.14,205.76,48.21,205.76,50Zm-2,0c0-.85-.63-1.35-1.87-1.34h-1.66l0,2.7h1.65C203.09,51.31,203.71,50.81,203.71,50Z"></path><path class="cls-2" d="M209.28,51c0-2.31,2-4,4.78-4s4.8,1.68,4.81,4-2,4-4.78,4S209.29,53.31,209.28,51Zm7.54,0a2.76,2.76,0,1,0-2.73,2.5A2.52,2.52,0,0,0,216.82,51Z"></path><path class="cls-2" d="M235.85,47,233,54.79h-2.18l-2-5.25-2,5.27h-2.16l-2.92-7.76h2.11l2,5.45L228,47h1.88l2,5.5,2-5.52Z"></path><path class="cls-2" d="M246.28,53.29v1.44l-6.79,0,0-7.77,6.62,0V48.4l-4.61,0v1.69l4.07,0v1.4l-4.07,0v1.8Z"></path><path class="cls-2" d="M256,54.69l-1.7-2.16h-1.87V54.7h-2l0-7.77h3.8c2.34,0,3.81,1.06,3.81,2.8a2.53,2.53,0,0,1-1.79,2.46l2,2.49Zm-1.93-6.3h-1.65v2.71h1.65c1.24,0,1.86-.52,1.86-1.36S255.3,48.39,254.06,48.39Z"></path><path class="cls-2" d="M261.68,53.74a1.07,1.07,0,0,1,1.2-1,1.06,1.06,0,0,1,1.2,1,1.22,1.22,0,0,1-2.4,0Zm0-6.85H264L263.65,52H262.1Z"></path><path class="cls-3" d="M7.73,12.13l6.29,0V13a6.27,6.27,0,0,1,3.77-1.27,7.2,7.2,0,0,1,5.34,2.45,7.2,7.2,0,0,1,5.54-2.5,7.63,7.63,0,0,1,7.65,7.92l.06,12.55-6.29,0L30,20a2.38,2.38,0,0,0-2.37-2.54,2.52,2.52,0,0,0-2.47,2.78l.05,12-6.29,0L18.91,20a2.38,2.38,0,0,0-2.46-2.54,2.5,2.5,0,0,0-2.39,2.78l0,11.95-6.29,0Z"></path><path class="cls-3" d="M39.64,22a10.25,10.25,0,0,1,9.91-10.51,8.74,8.74,0,0,1,5.34,1.6V11.93l6.3,0L61.26,32l-5.92,0-.08-1.45a8.92,8.92,0,0,1-5.62,1.84A10.22,10.22,0,0,1,39.64,22ZM55.08,22a4.58,4.58,0,1,0-9.15,0,4.58,4.58,0,1,0,9.15,0Z"></path><path class="cls-3" d="M66.21,11.88l6.26,0v1.26a6,6,0,0,1,4.25-1.65,7.52,7.52,0,0,1,7.47,7.67l.06,12.8L78,32,77.9,19.75a2.51,2.51,0,0,0-2.63-2.58,2.64,2.64,0,0,0-2.77,2.6l0,12.21L66.3,32Z"></path><path class="cls-3" d="M88.64,11.78l6.29,0v1.19a9,9,0,0,1,5.17-1.58,10.19,10.19,0,0,1,10,10.4,10.18,10.18,0,0,1-9.88,10.47A8.87,8.87,0,0,1,95,30.7l0,9.7-6.29,0Zm15.18,10a4.57,4.57,0,1,0-4.53,4.61A4.56,4.56,0,0,0,103.82,21.78Z"></path><path class="cls-3" d="M112.67,21.74a10.61,10.61,0,1,1,10.67,10.39A10.41,10.41,0,0,1,112.67,21.74Zm15.06-.06a4.5,4.5,0,0,0-9,0,4.49,4.49,0,0,0,4.57,4.49A4.44,4.44,0,0,0,127.73,21.68Z"></path><path class="cls-3" d="M156.58,32.36l-6-12.7-5.9,12.75L134.58,11.58l6.84,0L145,20l3.59-8.49h4L156.19,20l3.48-8.49,6.85,0Z"></path><path class="cls-3" d="M188.21,21.23v0L188.15,23l-14.51.06A4.35,4.35,0,0,0,178,26.53a4.61,4.61,0,0,0,3.84-1.9l5.63,1.42a9.9,9.9,0,0,1-9.41,5.85A10.34,10.34,0,0,1,167.3,21.51,10.32,10.32,0,0,1,177.84,11,10,10,0,0,1,188.21,21.23ZM173.88,19l7.81,0a3.8,3.8,0,0,0-3.79-2.65A4.13,4.13,0,0,0,173.88,19Z"></path><path class="cls-3" d="M198.25,22.45l0,9-6.25,0L192,11.34l6.25,0V14a4.39,4.39,0,0,1,4.28-3.09,4.17,4.17,0,0,1,.71,0l0,6.1C200.45,16.44,198.23,17.82,198.25,22.45Z"></path><path class="cls-3" d="M206.42,27.48a4.31,4.31,0,1,1,8.62,0,4.31,4.31,0,0,1-8.62,0Z"></path><path class="cls-1" d="M218.34,21.25a10.25,10.25,0,0,1,9.91-10.51,8.8,8.8,0,0,1,5.34,1.6V11.16l6.29,0L240,31.26l-5.92,0L234,29.85a9,9,0,0,1-5.62,1.83A10.22,10.22,0,0,1,218.34,21.25Zm15.44-.06a4.57,4.57,0,1,0-4.53,4.64A4.53,4.53,0,0,0,233.78,21.19Z"></path><path class="cls-1" d="M263.94,20.91v0l-.06,1.73-14.51.07a4.36,4.36,0,0,0,4.38,3.46,4.62,4.62,0,0,0,3.84-1.91l5.63,1.42a9.88,9.88,0,0,1-9.41,5.85A10.34,10.34,0,0,1,243,21.18,10.33,10.33,0,0,1,253.57,10.7,10,10,0,0,1,263.94,20.91Zm-14.33-2.23,7.81,0A3.82,3.82,0,0,0,253.63,16,4.12,4.12,0,0,0,249.61,18.68Z"></path><path class="cls-4" d="M268.42,13.44V14.8H268V11.55h.92a2.09,2.09,0,0,1,.53.06,1,1,0,0,1,.37.18.77.77,0,0,1,.22.29.87.87,0,0,1,.07.37,1.07,1.07,0,0,1,0,.32.92.92,0,0,1-.16.27,1,1,0,0,1-.25.21,1.51,1.51,0,0,1-.34.13.37.37,0,0,1,.15.13l.95,1.29H270a.19.19,0,0,1-.17-.09L269,13.54l-.09-.08-.13,0Zm0-.32h.46a1.16,1.16,0,0,0,.34,0,.55.55,0,0,0,.39-.33.59.59,0,0,0,.05-.27.49.49,0,0,0-.19-.43.92.92,0,0,0-.57-.15h-.48Z"></path><path class="cls-4" d="M269,16a2.71,2.71,0,1,1,2.69-2.72A2.71,2.71,0,0,1,269,16Zm0-5.13a2.42,2.42,0,1,0,2.43,2.41A2.42,2.42,0,0,0,269,10.85Z"></path></svg> 